<svg width="21" height="34" viewBox="0 0 21 34" fill="none" xmlns="http://www.w3.org/2000/svg">
<path d="M21 8.5V22.3125C21 29.1422 15.7098 34.6224 9.45107 33.943C3.99632 33.3507 0 27.8925 0 21.792V13.8125C0 13.2256 0.427398 12.75 0.954545 12.75H2.86364C3.39078 12.75 3.81818 13.2256 3.81818 13.8125V22.0985C3.81818 25.6476 5.97289 28.8775 9.09652 29.5898C13.391 30.569 17.1818 26.9236 17.1818 22.3125V8.7376C17.1818 6.61991 15.8858 4.65282 14.0086 4.30917C11.619 3.87168 9.54545 5.92065 9.54545 8.5V20.1875C9.54545 20.7737 9.97333 21.25 10.5 21.25C11.0267 21.25 11.4545 20.7737 11.4545 20.1875V9.5625C11.4545 8.9756 11.8819 8.5 12.4091 8.5H14.3182C14.8453 8.5 15.2727 8.9756 15.2727 9.5625V19.8733C15.2727 22.6516 13.4821 25.1893 10.9989 25.4716C8.14466 25.7958 5.72727 23.2998 5.72727 20.1875V8.87872C5.72727 4.44198 8.63356 0.472349 12.6007 0.0415056C17.1525 -0.452756 21 3.53288 21 8.5Z" fill="#6D6DB4"/>
</svg>
