<svg width="25" height="22" viewBox="0 0 25 22" fill="none" xmlns="http://www.w3.org/2000/svg">
<path d="M21.875 0H3.125C1.39912 0 0 1.40712 0 3.14286V18.8571C0 20.5929 1.39912 22 3.125 22H21.875C23.6009 22 25 20.5929 25 18.8571V3.14286C25 1.40712 23.6009 0 21.875 0ZM5.46875 3.14286C6.76318 3.14286 7.8125 4.19827 7.8125 5.5C7.8125 6.80173 6.76318 7.85714 5.46875 7.85714C4.17432 7.85714 3.125 6.80173 3.125 5.5C3.125 4.19827 4.17432 3.14286 5.46875 3.14286ZM21.7833 18.4422C21.6473 18.6977 21.3825 18.8571 21.0944 18.8571H4.00454C3.71055 18.8571 3.44141 18.6912 3.3082 18.4275C3.17485 18.1639 3.20005 17.8474 3.37334 17.6085L6.79131 12.8943C6.93838 12.6913 7.17295 12.5714 7.42256 12.5714C7.67217 12.5714 7.90674 12.6913 8.05376 12.8943L9.63848 15.0801L14.1944 8.20703C14.3393 7.98836 14.5832 7.85714 14.8444 7.85714C15.1057 7.85714 15.3496 7.98836 15.4944 8.20703L21.7444 17.6356C21.9043 17.8767 21.9191 18.1867 21.7833 18.4422Z" fill="#6D6DB4"/>
</svg>
