<svg width="24" height="24" viewBox="0 0 24 24" fill="none" xmlns="http://www.w3.org/2000/svg">
<path d="M23.9823 1.72796L20.9823 21.2278C20.912 21.6841 20.6366 22.0818 20.2338 22.3082C20.0068 22.4356 19.7534 22.5 19.4999 22.5C19.3036 22.5 19.1088 22.462 18.9228 22.3843L13.174 19.989L10.79 23.565C10.6088 23.8368 10.3037 24 9.97697 24C9.43734 24 8.9999 23.5626 8.9999 23.023V18.5147C8.9999 18.1811 9.11109 17.8571 9.31589 17.5938L19.4999 4.50019L5.73431 16.8892L0.922779 14.8844C0.395435 14.6646 0.0380131 14.1637 0.00285687 13.5931C-0.0322994 13.0225 0.259216 12.4813 0.755763 12.1979L21.7558 0.197955C22.2568 -0.0884048 22.8749 -0.062061 23.3495 0.263861C23.8241 0.589783 24.0702 1.15889 23.9823 1.72796Z" fill="#4849A1" fill-opacity="0.8"/>
</svg>
