<svg width="40.00000000000001" height="40.00000000000001" xmlns="http://www.w3.org/2000/svg">

 <g>
  <title>Layer 1</title>
  <path id="svg_1" stroke-width="2" stroke="#4849A1" fill="white" d="m1.14859,19.85141c0,-10.49341 8.50659,-19 19,-19c10.4934,0 19,8.50659 19,19c0,10.4934 -8.5066,19 -19,19c-10.49341,0 -19,-8.5066 -19,-19z"/>
  <g stroke="null" id="svg_7">
   <path stroke="null" id="svg_5" fill="black" d="m16.9649,16.0265l6.51434,0l-1.5528,1.55278c-0.46909,0.46906 -0.46909,1.22895 0,1.698c0.46869,0.46869 1.22861,0.46944 1.698,0l3.56862,-3.60239c0.46909,-0.46906 0.46909,-1.22894 0,-1.698l-3.56862,-3.60239c-0.46909,-0.46906 -1.22891,-0.46906 -1.698,0c-0.46909,0.46906 -0.46909,1.22894 0,1.698l1.5528,1.55241l-6.51434,0c-2.78923,0 -5.25537,1.77868 -6.13713,4.42418c-0.20987,0.63042 0.13017,1.30962 0.7598,1.51601c0.12571,0.04503 0.25367,0.0638 0.37938,0.0638c0.5032,0 0.97152,-0.3178 1.13926,-0.82105c0.55386,-1.6631 2.10627,-2.78134 3.85869,-2.78134z"/>
   <path stroke="null" id="svg_6" fill="black" d="m29.15681,19.69194c-0.12387,-0.04503 -0.25513,-0.06379 -0.41277,-0.06379c-0.50317,0 -0.97156,0.3178 -1.13922,0.821c-0.51935,1.66312 -2.07296,2.7814 -3.82536,2.7814l-6.5143,0l1.55279,-1.5528c0.46906,-0.46909 0.46906,-1.22891 0,-1.698c-0.46869,-0.46868 -1.22856,-0.46944 -1.698,0l-3.56862,3.60239c-0.46906,0.46909 -0.46906,1.22891 0,1.698l3.56862,3.60239c0.46906,0.46909 1.22894,0.46909 1.698,0c0.46906,-0.46909 0.46906,-1.22891 0,-1.698l-1.55279,-1.55239l6.5143,0c2.78929,0 5.25348,-1.77799 6.13534,-4.42419c0.21013,-0.63038 -0.12761,-1.30962 -0.75799,-1.51602z" opacity="0.4"/>
  </g>
 </g>
</svg>