<svg width="32" height="32" viewBox="0 0 32 32" fill="none" xmlns="http://www.w3.org/2000/svg">
<path d="M16.0071 20C13.1364 20 10.8093 17.0898 10.8093 13.5C10.8093 9.91013 13.1363 7 16.0071 7C18.8774 7 21.2048 9.91013 21.2048 13.5C21.2048 17.0898 18.8775 20 16.0071 20ZM13.5057 22L18.4944 22C22.4185 22 25.6 25.7308 25.6 30.3333C25.6 31.2537 24.9637 32 24.1789 32L7.8211 32C7.03635 32 6.4 31.2537 6.4 30.3333C6.4 25.7308 9.58115 22 13.5057 22ZM6.4 10C4.1908 10 2.4 7.76138 2.4 5C2.4 2.23863 4.1908 2.43116e-06 6.4 2.23802e-06C8.609 2.04491e-06 10.4 2.23863 10.4 5C10.4 7.76138 8.609 10 6.4 10ZM22.8047 13.5C22.8047 13.1594 22.7556 12.8357 22.7242 12.5055C23.2694 12.1854 23.8694 12 24.504 12L27.596 12C30.0281 12 32 14.6116 32 17.8333C32 18.4776 31.6057 19 31.1193 19L21.1465 19C22.1656 17.5132 22.8047 15.6072 22.8047 13.5ZM25.6 10C23.3908 10 21.6 7.76138 21.6 5C21.6 2.23863 23.3908 7.5264e-07 25.6 5.59506e-07C27.809 3.66389e-07 29.6 2.23863 29.6 5C29.6 7.76138 27.809 10 25.6 10ZM4.404 12L7.496 12C8.13605 12 8.74025 12.1898 9.28895 12.515C9.2583 12.8422 9.2093 13.1628 9.2093 13.5C9.2093 15.6072 9.84835 17.5132 10.8675 19L0.88075 19C0.39435 19 1.61536e-06 18.4776 1.55903e-06 17.8333C1.27738e-06 14.6116 1.9717 12 4.404 12Z" fill="#EEEEF6"/>
</svg>
