<svg width="15" height="24" viewBox="0 0 15 24" fill="none" xmlns="http://www.w3.org/2000/svg">
<path d="M14.6667 5.99997V15.75C14.6667 20.571 10.9719 24.4393 6.60075 23.9597C2.79108 23.5417 0 19.6888 0 15.3826V9.74997C0 9.33568 0.2985 8.99997 0.666667 8.99997H2C2.36817 8.99997 2.66667 9.33568 2.66667 9.74997V15.5989C2.66667 18.1042 4.17154 20.3841 6.35313 20.8869C9.35246 21.5781 12 19.0049 12 15.75V6.16769C12 4.67284 11.0949 3.28431 9.78379 3.04173C8.11483 2.73292 6.66667 4.17925 6.66667 5.99997V14.25C6.66667 14.6638 6.9655 15 7.33333 15C7.70117 15 8 14.6638 8 14.25V6.74997C8 6.33569 8.2985 5.99997 8.66667 5.99997H10C10.3682 5.99997 10.6667 6.33569 10.6667 6.74997V14.0282C10.6667 15.9894 9.41608 17.7807 7.68179 17.9799C5.68833 18.2088 4 16.4469 4 14.25V6.2673C4 3.13549 6.02979 0.333392 8.80046 0.0292675C11.9795 -0.319623 14.6667 2.49377 14.6667 5.99997Z" fill="#6D6DB4"/>
</svg>
