<svg width="24" height="22" viewBox="0 0 24 22" fill="none" xmlns="http://www.w3.org/2000/svg">
<path d="M21 0.5H3C1.34316 0.5 0 1.84316 0 3.5V18.5C0 20.1568 1.34316 21.5 3 21.5H21C22.6568 21.5 24 20.1568 24 18.5V3.5C24 1.84316 22.6568 0.5 21 0.5ZM5.25 3.5C6.49266 3.5 7.5 4.50744 7.5 5.75C7.5 6.99256 6.49266 8 5.25 8C4.00734 8 3 6.99256 3 5.75C3 4.50744 4.00734 3.5 5.25 3.5ZM20.9119 18.104C20.7814 18.3478 20.5272 18.5 20.2507 18.5H3.84436C3.56212 18.5 3.30375 18.3416 3.17587 18.0898C3.04786 17.8383 3.07205 17.5362 3.23841 17.3082L6.51966 12.8082C6.66084 12.6144 6.88603 12.5 7.12566 12.5C7.36528 12.5 7.59047 12.6144 7.73161 12.8082L9.25294 14.8947L13.6266 8.33398C13.7657 8.12525 13.9999 8 14.2507 8C14.5014 8 14.7356 8.12525 14.8747 8.33398L20.8747 17.334C21.0281 17.5641 21.0424 17.8601 20.9119 18.104Z" fill="#6D6DB4"/>
</svg>
