<svg width="32" height="28" viewBox="0 0 32 28" fill="none" xmlns="http://www.w3.org/2000/svg">
<path d="M16 0C7.16406 0 0 5.82031 0 13C0 16.1016 1.33594 18.9375 3.5625 21.1719C2.78125 24.3203 0.171875 27.125 0.140625 27.1562C0 27.2969 -0.0390625 27.5156 0.046875 27.7031C0.124937 27.8906 0.296875 28 0.5 28C4.64062 28 7.75 26.0156 9.28906 24.7891C11.3281 25.5547 13.6016 26 16 26C24.8359 26 32 20.1797 32 13C32 5.82031 24.8359 0 16 0ZM8 15C6.89062 15 6 14.1094 6 13C6 11.8906 6.89062 11 8 11C9.10938 11 10 11.8906 10 13C10 14.1094 9.10938 15 8 15ZM16 15C14.8906 15 14 14.1094 14 13C14 11.8906 14.8906 11 16 11C17.1094 11 18 11.8906 18 13C18 14.1094 17.1094 15 16 15ZM24 15C22.8906 15 22 14.1094 22 13C22 11.8906 22.8906 11 24 11C25.1094 11 26 11.8906 26 13C26 14.1094 25.1094 15 24 15Z" fill="#EEEEF6"/>
</svg>
