<svg width="24" height="24" viewBox="0 0 24 24" fill="none" xmlns="http://www.w3.org/2000/svg">
<path d="M23.6705 21.0188L17.8417 15.19C18.8884 13.636 19.5 11.7645 19.5 9.75C19.5 4.36523 15.1348 0 9.75 0C4.36523 0 0 4.36523 0 9.75C0 15.1348 4.36523 19.5 9.75 19.5C11.7645 19.5 13.636 18.8884 15.19 17.8417L21.0188 23.6705C21.4582 24.1099 22.1705 24.1099 22.6099 23.6705L23.6705 22.6099C24.1099 22.1705 24.1099 21.4582 23.6705 21.0188ZM3.75 9.75C3.75 6.44156 6.44156 3.75 9.75 3.75C13.0584 3.75 15.75 6.44156 15.75 9.75C15.75 13.0583 13.0584 15.75 9.75 15.75C6.44156 15.75 3.75 13.0583 3.75 9.75Z" fill="#6D6DB4"/>
</svg>
