<svg width="24" height="24" viewBox="0 0 24 24" fill="none" xmlns="http://www.w3.org/2000/svg">
<path d="M23.9824 1.72792L20.9824 21.2278C20.9121 21.6841 20.6367 22.0818 20.2339 22.3081C20.0068 22.4355 19.7534 22.5 19.5 22.5C19.3037 22.5 19.1089 22.4619 18.9228 22.3843L13.174 19.989L10.79 23.5649C10.6089 23.8368 10.3038 24 9.97703 24C9.4374 24 8.99996 23.5625 8.99996 23.0229V18.5147C8.99996 18.1811 9.11115 17.8571 9.31595 17.5938L19.5 4.50016L5.73437 16.8891L0.92284 14.8843C0.395496 14.6646 0.0380742 14.1636 0.0029179 13.5931C-0.0322383 13.0225 0.259277 12.4813 0.755824 12.1978L21.7558 0.197924C22.2568 -0.0884353 22.875 -0.0620915 23.3496 0.263831C23.8242 0.589753 24.0703 1.15886 23.9824 1.72792Z" fill="#4849A1" fill-opacity="0.8"/>
</svg>
